<?xml version="1.0" encoding="UTF-8" standalone="no"?>
<!-- Generator: Adobe Illustrator 16.0.0, SVG Export Plug-In . SVG Version: 6.00 Build 0)  -->

<svg
   xmlns:dc="http://purl.org/dc/elements/1.1/"
   xmlns:cc="http://creativecommons.org/ns#"
   xmlns:rdf="http://www.w3.org/1999/02/22-rdf-syntax-ns#"
   xmlns:svg="http://www.w3.org/2000/svg"
   xmlns="http://www.w3.org/2000/svg"
   xmlns:sodipodi="http://sodipodi.sourceforge.net/DTD/sodipodi-0.dtd"
   xmlns:inkscape="http://www.inkscape.org/namespaces/inkscape"
   version="1.1"
   id="Layer 1"
   x="0px"
   y="0px"
   width="1920"
   height="1080"
   viewBox="0 0 1920 1080"
   enable-background="new 0 0 1920 1080"
   xml:space="preserve"
   sodipodi:docname="消纳-微电网.svg"
   inkscape:version="0.92.1 r15371"><metadata
     id="metadata157"><rdf:RDF><cc:Work
         rdf:about=""><dc:format>image/svg+xml</dc:format><dc:type
           rdf:resource="http://purl.org/dc/dcmitype/StillImage" /><dc:title></dc:title></cc:Work></rdf:RDF></metadata><defs
     id="defs155" /><sodipodi:namedview
     pagecolor="#272730"
     bordercolor="#666666"
     borderopacity="1"
     objecttolerance="10"
     gridtolerance="10"
     guidetolerance="10"
     inkscape:pageopacity="0"
     inkscape:pageshadow="2"
     inkscape:window-width="1920"
     inkscape:window-height="1018"
     id="namedview153"
     showgrid="false"
     showguides="true"
     inkscape:guide-bbox="true"
     inkscape:zoom="0.5"
     inkscape:cx="895.91522"
     inkscape:cy="822.84903"
     inkscape:window-x="-8"
     inkscape:window-y="-8"
     inkscape:window-maximized="1"
     inkscape:current-layer="g150" /><g
     inkscape:groupmode="layer"
     id="layer1"
     inkscape:label="Main"
     style="display:inline"><g
       style="display:inline"
       id="g150"><text
   style="font-size:49.3667984px;font-family:SimHei;fill:#ffffff"
   font-size="49.3668"
   id="text4"
   x="76"
   y="654">输入量</text>

<g
   id="g8"><polygon
     style="clip-rule:evenodd;fill:#6db930;fill-rule:evenodd"
     points="253.885,575.09 269.459,590.662 272.046,593.25 269.459,595.84 253.885,611.411 251.298,608.823 265.101,595.067 23.35,595.067 23.35,591.435 265.101,591.435 251.298,577.679 "
     id="polygon6" /></g><g
   id="g12"><polygon
     style="clip-rule:evenodd;fill:#6db930;fill-rule:evenodd"
     points="558.278,575.09 573.642,590.662 576.194,593.25 573.642,595.84 558.278,611.411 555.727,608.823 569.342,595.067 378.073,595.067 378.073,591.435 569.342,591.435 555.727,577.679 "
     id="polygon10" /></g><g
   id="g16"><polygon
     style="clip-rule:evenodd;fill:#6db930;fill-rule:evenodd"
     points="558.499,334.18 574.072,349.752 576.66,352.341 574.072,354.93 558.499,370.502 555.912,367.914 569.713,354.157 439.634,354.157 439.634,350.525 569.713,350.525 555.912,336.769 "
     id="polygon14" /></g><g
   id="g20"><polyline
     style="clip-rule:evenodd;fill:#6db930;fill-rule:evenodd"
     points="1667.25,354.204 1041.27,354.204 1041.27,350.572     1041.27,350.572 1667.25,350.572   "
     id="polyline18" /></g><g
   id="g24"><polyline
     style="clip-rule:evenodd;fill:#6db930;fill-rule:evenodd"
     points="951.642,825.916 326.151,825.916 326.151,822.285     326.151,822.285 951.642,822.285   "
     id="polyline22" /></g><g
   id="g28"><polygon
     style="clip-rule:evenodd;fill:#6db930;fill-rule:evenodd"
     points="1134.982,842.262 1119.408,826.688 1116.822,824.101 1119.408,821.513 1134.982,805.939 1137.569,808.528 1123.768,822.285 1666.348,822.285 1666.348,825.916 1123.768,825.916 1137.569,839.674 "
     id="polygon26" /></g><g
   id="g32"><polygon
     style="clip-rule:evenodd;fill:#6db930;fill-rule:evenodd"
     points="1841.807,575.161 1857.382,590.733 1859.968,593.321 1857.382,595.91 1841.807,611.482 1839.221,608.895 1853.021,595.139 1583.923,595.139 1583.923,591.506 1853.021,591.506 1839.221,577.749 "
     id="polygon30" /></g><g
   id="g36"><polygon
     style="clip-rule:evenodd;fill:#6db930;fill-rule:evenodd"
     points="856.778,334.227 872.071,349.799 874.611,352.388 872.071,354.977 856.778,370.548 854.238,367.96 867.791,354.204 742.3,354.204 742.3,350.572 867.791,350.572 854.238,336.815 "
     id="polygon34" /></g><g
   id="g40"><polygon
     style="clip-rule:evenodd;fill:#6db930;fill-rule:evenodd"
     points="856.778,575.161 872.071,590.733 874.611,593.321 872.071,595.91 856.778,611.482 854.238,608.895 867.791,595.139 742.3,595.139 742.3,591.506 867.791,591.506 854.238,577.749 "
     id="polygon38" /></g><g
   id="g44"><polygon
     style="clip-rule:evenodd;fill:#6db930;fill-rule:evenodd"
     points="1157.854,575.161 1173.43,590.733 1176.016,593.321 1173.43,595.91 1157.854,611.482 1155.268,608.895 1169.07,595.139 1041.27,595.139 1041.27,591.506 1169.07,591.506 1155.268,577.749 "
     id="polygon42" /></g><g
   id="g48"><polygon
     style="clip-rule:evenodd;fill:#6db930;fill-rule:evenodd"
     points="1683.583,573.632 1668.014,589.205 1665.422,591.791 1662.836,589.205 1647.261,573.632 1649.853,571.044 1663.606,584.842 1663.606,352.212 1667.238,352.212 1667.238,584.842 1680.997,571.044 "
     id="polygon46" /></g><g
   id="g52"><polyline
     style="clip-rule:evenodd;fill:#6db930;fill-rule:evenodd"
     points="1663.606,825.952 1663.606,593.321 1667.238,593.321     1667.238,593.321 1667.238,825.952   "
     id="polyline50" /></g><g
   id="g56"><polygon
     style="clip-rule:evenodd;fill:#6db930;fill-rule:evenodd"
     points="307.992,663.751 323.564,648.178 326.153,645.59 328.741,648.178 344.313,663.751 341.725,666.339 327.969,652.536 327.969,825.916 324.337,825.916 324.337,652.536 310.58,666.339 "
     id="polygon54" /></g><g
   id="g60"><polyline
     style="clip-rule:evenodd;fill:#6db930;fill-rule:evenodd"
     points="444.266,350.574 444.266,592.324 440.634,592.324     440.634,592.324 440.634,350.574   "
     id="polyline58" /></g><circle
   style="clip-rule:evenodd;fill:none;fill-rule:evenodd;stroke:#f5c245;stroke-width:3;stroke-miterlimit:10"
   stroke-miterlimit="10"
   cx="325.66101"
   cy="593.32098"
   r="52.417"
   id="circle62" /><rect
   style="clip-rule:evenodd;fill:#f5c245;fill-rule:evenodd"
   x="326.01199"
   y="539.63098"
   transform="matrix(0.8704,-0.4923,0.4923,0.8704,-249.292,237.8308)"
   width="2.279"
   height="105.709"
   id="rect64" /><rect
   style="clip-rule:evenodd;fill:#f5c245;fill-rule:evenodd"
   x="324.521"
   y="540.46698"
   transform="matrix(0.8746,0.4848,-0.4848,0.8746,328.4624,-83.4926)"
   width="2.2780001"
   height="105.71"
   id="rect66" /><g
   id="g70"><path
     style="fill:none;stroke:#f5c245;stroke-width:4;stroke-miterlimit:10"
     inkscape:connector-curvature="0"
     stroke-miterlimit="10"
     d="m 742.435,394.143 c 0,2.75 -2.25,5 -5,5 H 583.346 c -2.75,0 -5,-2.25 -5,-5 v -92.555 c 0,-2.75 2.25,-5 5,-5 h 154.089 c 2.75,0 5,2.25 5,5 z"
     id="path68" /></g><g
   id="g74"><path
     style="fill:none;stroke:#f5c245;stroke-width:4;stroke-miterlimit:10"
     inkscape:connector-curvature="0"
     stroke-miterlimit="10"
     d="m 742.435,639.6 c 0,2.75 -2.25,5 -5,5 H 583.346 c -2.75,0 -5,-2.25 -5,-5 v -92.556 c 0,-2.75 2.25,-5 5,-5 h 154.089 c 2.75,0 5,2.25 5,5 z"
     id="path72" /></g><g
   id="g78"><path
     style="fill:none;stroke:#f5c245;stroke-width:4;stroke-miterlimit:10"
     inkscape:connector-curvature="0"
     stroke-miterlimit="10"
     d="m 1041.27,394.143 c 0,2.75 -2.25,5 -5,5 H 882.181 c -2.75,0 -5,-2.25 -5,-5 v -92.555 c 0,-2.75 2.25,-5 5,-5 h 154.089 c 2.75,0 5,2.25 5,5 z"
     id="path76" /></g><g
   id="g82"><path
     style="fill:none;stroke:#f5c245;stroke-width:4;stroke-miterlimit:10"
     inkscape:connector-curvature="0"
     stroke-miterlimit="10"
     d="m 1041.27,639.6 c 0,2.75 -2.25,5 -5,5 H 882.181 c -2.75,0 -5,-2.25 -5,-5 v -92.556 c 0,-2.75 2.25,-5 5,-5 h 154.089 c 2.75,0 5,2.25 5,5 z"
     id="path80" /></g><g
   id="g86"><path
     style="fill:none;stroke:#f5c245;stroke-width:4;stroke-miterlimit:10"
     inkscape:connector-curvature="0"
     stroke-miterlimit="10"
     d="m 1116.478,870.378 c 0,2.75 -2.25,5 -5,5 h -154.09 c -2.75,0 -5,-2.25 -5,-5 v -92.556 c 0,-2.75 2.25,-5 5,-5 h 154.09 c 2.75,0 5,2.25 5,5 z"
     id="path84" /></g><g
   id="g90"><path
     style="fill:none;stroke:#f5c245;stroke-width:4;stroke-miterlimit:10"
     inkscape:connector-curvature="0"
     stroke-miterlimit="10"
     d="m 1585.193,639.6 c 0,2.75 -2.25,5 -5,5 h -399.178 c -2.75,0 -5,-2.25 -5,-5 v -92.556 c 0,-2.75 2.25,-5 5,-5 h 399.178 c 2.75,0 5,2.25 5,5 z"
     id="path88" /></g><text
   id="text96"
   x="612.94025"
   y="343.06812"><tspan
     style="font-size:31.90609932px;font-family:SimHei;fill:#ffffff"
     x="612.94025"
     y="343.06812"
     font-size="31.9061"
     id="tspan92">充电桩</tspan><tspan
     style="font-size:31.90609932px;font-family:SimHei;fill:#ffffff"
     x="636.87024"
     y="381.3551"
     font-size="31.9061"
     id="tspan94">PCS</tspan></text>

<text
   style="font-size:31.90609932px;font-family:SimHei;fill:#ffffff"
   font-size="31.9061"
   id="text98"
   x="608"
   y="438">执行器</text>

<text
   style="font-size:31.90609932px;font-family:SimHei;fill:#ffffff"
   font-size="31.9061"
   id="text100"
   x="892"
   y="438">控制对象</text>

<text
   style="font-size:31.90609932px;font-family:SimHei;fill:#ffffff"
   font-size="31.9061"
   id="text102"
   x="610"
   y="692">控制器</text>

<text
   style="font-size:31.90609932px;font-family:SimHei;fill:#ffffff"
   font-size="31.9061"
   id="text104"
   x="906"
   y="690">执行器</text>

<text
   style="font-size:31.90609932px;font-family:SimHei;fill:#ffffff"
   font-size="31.9061"
   id="text106"
   x="905.09668"
   y="605.28339">储能PCS</text>

<text
   style="font-size:31.90609932px;font-family:SimHei;fill:#ffffff"
   font-size="31.9061"
   id="text108"
   x="1310"
   y="690">控制对象</text>

<text
   style="font-size:31.90609932px;font-family:SimHei;fill:#ffffff"
   font-size="31.9061"
   id="text110"
   x="1696"
   y="648">被控制量</text>

<text
   id="text116"
   x="896.61139"
   y="336.58282"><tspan
     style="font-size:31.90609932px;font-family:SimHei;fill:#ffffff"
     x="896.61139"
     y="336.58282"
     font-size="31.9061"
     id="tspan112">充电桩充</tspan><tspan
     style="font-size:31.90609932px;font-family:SimHei;fill:#ffffff"
     x="896.61139"
     y="374.86981"
     font-size="31.9061"
     id="tspan114">放电功率</tspan></text>

<text
   id="text122"
   x="610"
   y="588"><tspan
     style="font-size:31.90609932px;font-family:SimHei;fill:#ffffff"
     x="610"
     y="588"
     font-size="31.9061"
     id="tspan118">微网控</tspan><tspan
     style="font-size:31.90609932px;font-family:SimHei;fill:#ffffff"
     x="625.953"
     y="626.28699"
     font-size="31.9061"
     id="tspan120">制器</tspan></text>

<text
   style="font-size:31.90609932px;font-family:SimHei;fill:#ffffff"
   font-size="31.9061"
   id="text124"
   x="970.15051"
   y="831.55756">检测装置</text>

<text
   id="text130"
   x="1269.2567"
   y="604.57629"><tspan
     style="font-size:31.90609932px;font-family:SimHei;fill:#ffffff"
     x="1269.2567"
     y="604.57629"
     font-size="31.9061"
     id="tspan126">储能充放电功率</tspan></text>

<g
   id="g138"><text
   style="font-size:93.43939972px;font-family:SimHei;fill:#ffffff"
   transform="translate(160.9795,582.5)"
   font-size="93.4394"
   id="text132">P</text>

<polygon
   style="fill:none;stroke:#ffffff;stroke-miterlimit:10"
   stroke-miterlimit="10"
   points="107.134,577.152 125.768,529.086 153.518,577.152 "
   id="polygon134" /><polygon
   style="fill:#ffffff"
   points="155.376,578.154 158.789,575.904 129.731,524.713 125.768,526.963 "
   id="polygon136" /></g><g
   id="g146"><text
   style="font-size:93.43939972px;font-family:SimHei;fill:#ffffff"
   transform="translate(1765.0771,569.7949)"
   font-size="93.4394"
   id="text140">P</text>

<polygon
   style="fill:none;stroke:#ffffff;stroke-miterlimit:10"
   stroke-miterlimit="10"
   points="1711.231,564.449 1729.864,516.383 1757.615,564.449 "
   id="polygon142" /><polygon
   style="fill:#ffffff"
   points="1759.474,565.45 1762.886,563.2 1733.83,512.01 1729.864,514.26 "
   id="polygon144" /></g><text
   style="font-size:41.02220154px;font-family:SimHei;fill:#ffffff"
   font-size="41.0222"
   id="text148"
   x="1815.8502"
   y="565.68542">max</text>

</g></g></svg>